<svg width="1439" height="1422" viewBox="0 0 1439 1422" fill="none" xmlns="http://www.w3.org/2000/svg">
<ellipse cx="719.316" cy="710.968" rx="534.925" ry="512.116" transform="rotate(30 719.316 710.968)" fill="url(#paint0_diamond)"/>
<g clip-path="url(#clip0)">
<path d="M1020.81 731.396V1031.95L1071.02 1113.88L1074.84 1120.11H1272.96L1276.96 731.396H1020.81Z" fill="#E6E6E6"/>
<path opacity="0.1" d="M1020.81 731.396V1031.95L1071.02 1113.88L1074.1 731.396H1020.81Z" fill="black"/>
<path d="M542.521 723.38V1023.93L492.31 1105.87L488.489 1112.1H290.37L286.367 723.38H542.521Z" fill="#E6E6E6"/>
<path opacity="0.1" d="M542.521 723.38V1023.93L492.31 1105.87L489.229 723.38H542.521Z" fill="black"/>
<path d="M1337 717.371V735.403H260.351V709.355L360.411 657.259H1248.95L1337 717.371Z" fill="#E6E6E6"/>
<path opacity="0.1" d="M1337 717.371V735.403H260.351V709.355L1337 717.371Z" fill="black"/>
<path d="M414.445 807.535H366.415L346.403 793.51H436.458L414.445 807.535Z" fill="#3F3D56"/>
<path d="M414.445 865.643H366.415L346.403 851.617H436.458L414.445 865.643Z" fill="#3F3D56"/>
<path d="M414.445 947.795H366.415L346.403 933.768H436.458L414.445 947.795Z" fill="#3F3D56"/>
<path d="M414.445 1029.95H366.415L346.403 1015.92H436.458L414.445 1029.95Z" fill="#3F3D56"/>
<path d="M1148.89 815.55H1196.92L1216.93 801.524H1126.87L1148.89 815.55Z" fill="#3F3D56"/>
<path d="M1148.89 873.657H1196.92L1216.93 859.631H1126.87L1148.89 873.657Z" fill="#3F3D56"/>
<path d="M1148.89 955.809H1196.92L1216.93 941.784H1126.87L1148.89 955.809Z" fill="#3F3D56"/>
<path d="M1148.89 1037.96H1196.92L1216.93 1023.93H1126.87L1148.89 1037.96Z" fill="#3F3D56"/>
<path d="M1181.59 309.699H777.256C775.248 309.699 773.259 310.095 771.404 310.864C769.548 311.634 767.863 312.761 766.443 314.183C765.023 315.605 763.896 317.293 763.128 319.15C762.359 321.008 761.964 322.999 761.964 325.01V597.72C761.964 599.731 762.359 601.722 763.128 603.579C763.896 605.437 765.023 607.125 766.443 608.547C767.863 609.968 769.548 611.096 771.404 611.865C773.259 612.635 775.248 613.031 777.256 613.03H930.746L924.995 649.79C924.995 649.79 892.132 667.27 915.239 667.784C938.346 668.298 1047.2 667.784 1047.2 667.784C1047.2 667.784 1068.26 667.784 1034.88 649.276L1029.47 613.03H1181.59C1183.6 613.031 1185.59 612.635 1187.45 611.865C1189.3 611.096 1190.99 609.968 1192.41 608.547C1193.83 607.125 1194.95 605.437 1195.72 603.579C1196.49 601.722 1196.89 599.731 1196.89 597.72V325.01C1196.89 322.999 1196.49 321.008 1195.72 319.15C1194.95 317.293 1193.83 315.605 1192.41 314.183C1190.99 312.761 1189.3 311.634 1187.45 310.864C1185.59 310.095 1183.6 309.699 1181.59 309.699V309.699Z" fill="#3F3D56"/>
<path d="M1182.25 325.894H776.599V553.135H1182.25V325.894Z" fill="#F2F2F2"/>
<path d="M979.425 321.267C980.843 321.267 981.992 320.116 981.992 318.696C981.992 317.277 980.843 316.126 979.425 316.126C978.007 316.126 976.857 317.277 976.857 318.696C976.857 320.116 978.007 321.267 979.425 321.267Z" fill="#F2F2F2"/>
<path d="M979.425 601.977C984.813 601.977 989.181 597.603 989.181 592.209C989.181 586.814 984.813 582.44 979.425 582.44C974.036 582.44 969.668 586.814 969.668 592.209C969.668 597.603 974.036 601.977 979.425 601.977Z" fill="#F2F2F2"/>
<path d="M964.222 695.547V700.689H687.968V696.575L688.348 695.547L695.156 677.039H958.574L964.222 695.547Z" fill="#3F3D56"/>
<path d="M1070.53 690.514C1070.03 692.668 1068.13 694.94 1063.84 697.089C1048.43 704.801 1017.11 695.033 1017.11 695.033C1017.11 695.033 992.976 690.92 992.976 680.123C993.654 679.659 994.361 679.238 995.092 678.864C1001.57 675.433 1023.04 666.968 1061.12 679.222C1063.92 680.104 1066.43 681.748 1068.36 683.971C1069.21 684.811 1069.85 685.843 1070.23 686.98C1070.61 688.117 1070.71 689.328 1070.53 690.514Z" fill="#3F3D56"/>
<path opacity="0.1" d="M1070.53 690.514C1051.68 697.747 1034.87 698.287 1017.62 686.293C1011.1 681.465 1003.2 678.861 995.092 678.864C1001.57 675.433 1023.04 666.968 1061.12 679.222C1063.92 680.104 1066.43 681.748 1068.36 683.971C1069.21 684.811 1069.85 685.843 1070.23 686.98C1070.61 688.117 1070.71 689.328 1070.53 690.514Z" fill="black"/>
<path d="M1046.89 686.293C1050.58 686.293 1053.57 685.372 1053.57 684.236C1053.57 683.1 1050.58 682.18 1046.89 682.18C1043.21 682.18 1040.22 683.1 1040.22 684.236C1040.22 685.372 1043.21 686.293 1046.89 686.293Z" fill="#F2F2F2"/>
<path opacity="0.1" d="M964.222 695.547V700.689H687.968V696.575L688.348 695.547H964.222Z" fill="black"/>
<path d="M336.601 114C333.797 113.77 330.99 114.398 328.551 115.801C326.156 117.443 324.646 120.32 323.105 122.997C317.214 133.355 309.239 142.376 299.684 149.487C292.724 154.591 283.877 160.956 285.067 170.368C285.695 173.476 286.842 176.456 288.46 179.182C294.88 192.158 312.399 202.186 310.676 216.993C317.055 206.301 308.523 201.014 314.901 190.323C317.939 185.231 323.216 179.484 327.802 182.681C329.338 183.752 330.346 185.672 331.945 186.611C335.76 188.853 339.819 184.568 343.196 181.532C354.842 171.065 371.402 173.807 385.894 177.069C392.735 178.608 400.25 180.628 404.294 187.175C409.612 195.783 399.242 205.079 396.622 214.811C396.408 215.64 396.398 216.509 396.593 217.343C396.787 218.177 397.181 218.952 397.739 219.6C398.298 220.249 399.005 220.752 399.801 221.068C400.596 221.383 401.456 221.501 402.306 221.411C406.655 220.981 411.806 220.629 412.063 218.719C417.534 218.914 424.237 218.293 426.581 212.59C427.297 210.333 427.676 207.983 427.705 205.615C428.565 196.034 432.626 187.293 435.317 178.175C438.007 169.056 439.177 158.369 434.637 150.285C433.016 147.595 431.012 145.156 428.688 143.046C402.922 118.08 369.046 113.963 336.601 114Z" fill="#2F2E41"/>
<path d="M316.28 235.695C316.28 235.695 321.883 282.45 301.337 286.19C280.79 289.93 320.015 353.517 320.015 353.517L413.409 364.738L390.995 289.93C390.995 289.93 376.052 284.32 385.391 246.916C394.73 209.512 316.28 235.695 316.28 235.695Z" fill="#FFB8B8"/>
<path d="M259.309 1038.94L266.782 1141.8H306.006L294.8 1038.94H259.309Z" fill="#FFB8B8"/>
<path d="M546.962 844.443L552.565 930.471L595.528 911.77L578.716 840.703L546.962 844.443Z" fill="#FFB8B8"/>
<path d="M231.291 646.202C231.291 646.202 233.159 754.673 244.366 790.207C255.574 825.741 253.706 827.611 251.838 833.222C249.97 838.832 248.102 835.092 248.102 844.443C248.102 853.794 244.366 1001.54 248.102 1014.63C251.838 1027.72 236.895 1050.16 248.102 1052.03C259.309 1053.9 311.61 1052.03 313.478 1040.81C315.346 1029.59 298.535 1025.85 306.006 1018.37C313.478 1010.89 324.685 857.534 324.685 857.534L350.835 750.933L399.4 694.827H502.133L533.887 818.26C533.887 818.26 520.812 853.794 530.151 853.794C539.491 853.794 595.527 865.015 595.527 823.871C595.527 782.726 576.848 661.164 573.113 657.423C569.377 653.683 574.981 640.592 569.377 634.981C563.773 629.37 498.398 590.096 474.115 582.616C449.833 575.135 415.769 566.231 415.769 566.231L231.291 646.202Z" fill="#2F2E41"/>
<path d="M595.527 896.808C595.527 896.808 567.509 887.457 554.434 915.51C541.359 943.563 546.963 951.044 546.963 951.044C546.963 951.044 589.924 966.005 597.395 958.525C600.646 955.27 610.968 954.139 621.593 953.9C637.775 953.537 642.081 930.614 626.798 925.276C626.342 925.117 625.88 924.978 625.413 924.861C610.47 921.121 595.527 896.808 595.527 896.808Z" fill="#2F2E41"/>
<path d="M358.307 266.553C389.255 266.553 414.343 241.434 414.343 210.447C414.343 179.461 389.255 154.341 358.307 154.341C327.359 154.341 302.271 179.461 302.271 210.447C302.271 241.434 327.359 266.553 358.307 266.553Z" fill="#FFB8B8"/>
<path d="M285.46 309.567C285.46 309.567 376.986 328.269 399.4 298.346C421.815 268.423 431.154 382.505 431.154 382.505L442.361 502.197L425.55 567.654C425.55 567.654 337.76 638.721 309.742 644.332C281.724 649.943 238.763 653.683 238.763 653.683C238.763 653.683 251.838 446.091 251.838 442.351C251.838 438.611 285.46 309.567 285.46 309.567Z" fill="#1A749F"/>
<path d="M313.295 274.493C313.295 274.493 292.931 262.813 287.328 274.034C281.724 285.255 229.424 313.308 223.82 313.308C218.216 313.308 235.027 468.534 227.556 487.236C220.084 505.938 184.594 642.462 205.141 653.683C225.688 664.904 210.745 642.462 231.291 670.515C251.838 698.568 352.703 698.568 358.307 687.347C363.911 676.125 313.478 591.967 322.817 513.419C332.157 434.87 347.1 326.399 334.025 311.438C320.95 296.476 313.295 274.493 313.295 274.493Z" fill="#2F2E41"/>
<path d="M380.721 287.125L383.323 278.16C383.323 278.16 461.04 303.957 464.776 320.789C468.512 337.62 466.644 455.443 453.569 464.793C440.494 474.144 421.815 489.106 434.89 511.548C447.965 533.991 462.908 558.303 474.115 560.173C485.323 562.044 505.869 575.135 500.266 588.226C494.662 601.317 427.418 577.005 427.418 577.005C427.418 577.005 382.589 543.342 384.457 490.976C386.325 438.611 380.721 287.125 380.721 287.125Z" fill="#2F2E41"/>
<path d="M446.097 507.808L401.268 591.967C401.268 591.967 335.892 659.294 373.25 666.774C410.608 674.255 431.154 605.058 431.154 605.058L479.719 535.861L446.097 507.808Z" fill="#FFB8B8"/>
<path d="M339.331 128.68C337.072 128.513 334.81 128.952 332.778 129.953C330.94 131.297 329.426 133.034 328.345 135.039C323.363 142.543 316.868 148.92 309.279 153.762C303.614 157.37 296.411 161.868 297.38 168.52C297.907 170.751 298.843 172.863 300.142 174.75C305.386 184.014 307.474 194.737 306.089 205.295L321.667 182.624C324.139 179.026 328.435 174.963 332.168 177.223C333.418 177.98 334.239 179.337 335.541 180.001C338.647 181.586 341.951 178.557 344.7 176.411C354.18 169.013 367.661 170.952 379.458 173.257C385.027 174.345 391.144 175.772 394.436 180.4C399.907 188.089 394.194 199.2 397.387 208.084C398.281 207.457 399.04 206.657 399.62 205.732C400.199 204.806 400.587 203.773 400.76 202.695C405.214 202.832 410.67 202.394 412.578 198.363C413.159 196.783 413.468 195.116 413.493 193.433C414.194 186.661 417.5 180.483 419.69 174.038C421.88 167.593 422.832 160.04 419.136 154.326C417.784 152.39 416.152 150.665 414.294 149.209C393.319 131.564 365.742 128.654 339.331 128.68Z" fill="#2F2E41"/>
<path d="M446.097 313.308L463.5 317.933C463.5 317.933 504.001 421.779 494.662 492.846C485.322 563.914 479.719 548.952 479.719 548.952C479.719 548.952 464.776 515.289 431.154 522.769L446.097 313.308Z" fill="#2F2E41"/>
<path d="M261.897 1128.21C257.393 1134.34 258.296 1143.1 254.306 1149.57C250.848 1155.19 244.33 1158.13 240.004 1163.11C238.623 1164.76 237.393 1166.53 236.326 1168.4C232.313 1175.13 229.052 1183.76 233.004 1190.52C236.183 1195.97 242.866 1198.09 248.995 1199.54C256.742 1201.38 264.79 1202.84 272.626 1201.44C280.462 1200.04 288.121 1195.24 290.915 1187.78C291.464 1185.9 292.116 1184.05 292.87 1182.25C297.117 1173.88 310.439 1173.79 314.786 1165.47C317.828 1159.65 315.031 1152.61 312.236 1146.66L303.699 1128.5C300.866 1122.48 289.382 1125.94 283.395 1124.5C275.586 1122.61 267.515 1120.54 261.897 1128.21Z" fill="#2F2E41"/>
<path d="M199.537 545.212L277.988 666.774C277.988 666.774 326.553 728.491 341.496 700.438C356.439 672.385 289.195 625.63 289.195 625.63L238.763 532.121L199.537 545.212Z" fill="#FFB8B8"/>
<path d="M238.763 317.048L223.82 313.308C223.82 313.308 193.934 322.659 186.462 361.933C178.991 401.207 184.594 558.303 193.934 560.173C203.273 562.043 240.061 532.82 245.949 539.016C251.838 545.212 233.159 513.418 238.763 496.587C244.366 479.755 238.763 317.048 238.763 317.048Z" fill="#2F2E41"/>
<path d="M941.03 400.528H892.753V412.164H941.03V400.528Z" fill="#1A749F"/>
<path d="M1108.21 400.528H1091.23V412.164H1108.21V400.528Z" fill="#1A749F"/>
<path d="M1142.19 400.528H1125.2V412.164H1142.19V400.528Z" fill="#1A749F"/>
<path d="M1073.35 400.528H958.016V412.164H1073.35V400.528Z" fill="#1A749F"/>
<path d="M880.236 475.719H831.959V487.356H880.236V475.719Z" fill="#1A749F"/>
<path d="M1047.42 475.719H1030.43V487.356H1047.42V475.719Z" fill="#1A749F"/>
<path d="M1081.39 475.719H1064.41V487.356H1081.39V475.719Z" fill="#1A749F"/>
<path d="M1012.55 475.719H897.223V487.356H1012.55V475.719Z" fill="#1A749F"/>
<path d="M1079.6 426.487H1031.33V438.123H1079.6V426.487Z" fill="#1A749F"/>
<path d="M1144.87 426.487H1096.59V438.123H1144.87V426.487Z" fill="#1A749F"/>
<path d="M848.946 426.487H831.959V438.123H848.946V426.487Z" fill="#1A749F"/>
<path d="M882.918 426.487H865.932V438.123H882.918V426.487Z" fill="#1A749F"/>
<path d="M1015.23 426.487H899.905V438.123H1015.23V426.487Z" fill="#1A749F"/>
<path d="M979.473 451.55H931.196V463.187H979.473V451.55Z" fill="#1A749F"/>
<path d="M914.209 451.55H865.932V463.187H914.209V451.55Z" fill="#1A749F"/>
<path d="M848.946 451.55H831.959V463.187H848.946V451.55Z" fill="#1A749F"/>
<path d="M1144.87 451.55H1127.88V463.187H1144.87V451.55Z" fill="#1A749F"/>
<path d="M1110.89 451.55H995.565V463.187H1110.89V451.55Z" fill="#1A749F"/>
</g>
<defs>
<radialGradient id="paint0_diamond" cx="0" cy="0" r="1" gradientUnits="userSpaceOnUse" gradientTransform="translate(904.63 390.895) rotate(102.554) scale(852.571 887.033)">
<stop stop-color="#17B3A9"/>
<stop offset="1" stop-color="#0945DF"/>
</radialGradient>
<clipPath id="clip0">
<rect width="1154" height="1088" fill="white" transform="translate(183 114)"/>
</clipPath>
</defs>
</svg>
